<?xml version="1.0" encoding="UTF-8"?>
<svg xmlns="http://www.w3.org/2000/svg" xmlns:xlink="http://www.w3.org/1999/xlink" width="10px" height="10px" viewBox="0 0 10 10" version="1.1">
<g id="surface1">
<path style=" stroke:none;fill-rule:nonzero;fill:rgb(0%,0%,0%);fill-opacity:1;" d="M 7.722656 7.277344 C 7.804688 7.355469 7.839844 7.472656 7.8125 7.585938 C 7.78125 7.695312 7.695312 7.78125 7.585938 7.8125 C 7.472656 7.839844 7.355469 7.804688 7.277344 7.722656 L 5 5.441406 L 2.722656 7.722656 C 2.664062 7.78125 2.582031 7.8125 2.5 7.8125 C 2.417969 7.8125 2.335938 7.78125 2.277344 7.722656 C 2.15625 7.597656 2.15625 7.402344 2.277344 7.277344 L 4.558594 5 L 2.277344 2.722656 C 2.195312 2.644531 2.160156 2.527344 2.1875 2.414062 C 2.21875 2.304688 2.304688 2.21875 2.414062 2.1875 C 2.527344 2.160156 2.644531 2.195312 2.722656 2.277344 L 5 4.558594 L 7.277344 2.277344 C 7.355469 2.195312 7.472656 2.160156 7.585938 2.1875 C 7.695312 2.21875 7.78125 2.304688 7.8125 2.414062 C 7.839844 2.527344 7.804688 2.644531 7.722656 2.722656 L 5.441406 5 Z M 7.722656 7.277344 "/>
</g>
</svg>
